<svg id="visual" viewBox="0 0 960 540" width="960" height="540" xmlns="http://www.w3.org/2000/svg" xmlns:xlink="http://www.w3.org/1999/xlink" version="1.1"><rect x="0" y="0" width="960" height="540" fill="#E4E4E4"></rect><path d="M0 393L96 364L192 328L288 391L384 308L480 377L576 394L672 394L768 316L864 361L960 336L960 541L864 541L768 541L672 541L576 541L480 541L384 541L288 541L192 541L96 541L0 541Z" fill="#0588be"></path><path d="M0 383L96 386L192 371L288 388L384 374L480 384L576 401L672 375L768 436L864 408L960 422L960 541L864 541L768 541L672 541L576 541L480 541L384 541L288 541L192 541L96 541L0 541Z" fill="#246590"></path><path d="M0 402L96 395L192 465L288 441L384 413L480 401L576 423L672 415L768 389L864 421L960 387L960 541L864 541L768 541L672 541L576 541L480 541L384 541L288 541L192 541L96 541L0 541Z" fill="#244563"></path><path d="M0 455L96 485L192 436L288 489L384 465L480 438L576 427L672 453L768 473L864 487L960 470L960 541L864 541L768 541L672 541L576 541L480 541L384 541L288 541L192 541L96 541L0 541Z" fill="#1a2839"></path><path d="M0 508L96 482L192 521L288 471L384 470L480 519L576 492L672 519L768 485L864 482L960 471L960 541L864 541L768 541L672 541L576 541L480 541L384 541L288 541L192 541L96 541L0 541Z" fill="#070b14"></path></svg>